<svg width="72" height="72" viewBox="0 0 72 72" fill="none" xmlns="http://www.w3.org/2000/svg">
<path d="M33.75 0C36.8672 0 39.8555 0.398438 42.7148 1.19531C45.5742 1.99219 48.2695 3.11719 50.8008 4.57031C53.332 6.02344 55.6055 7.78125 57.6211 9.84375C59.6367 11.9062 61.3945 14.1914 62.8945 16.6992C64.3945 19.207 65.5312 21.8906 66.3047 24.75C67.0781 27.6094 67.4766 30.6094 67.5 33.75C67.5 36.8672 67.1016 39.8555 66.3047 42.7148C65.5078 45.5742 64.3828 48.2695 62.9297 50.8008C61.4766 53.332 59.7188 55.6055 57.6562 57.6211C55.5938 59.6367 53.3086 61.3945 50.8008 62.8945C48.293 64.3945 45.6094 65.5312 42.75 66.3047C39.8906 67.0781 36.8906 67.4766 33.75 67.5C30.6328 67.5 27.6445 67.1016 24.7852 66.3047C21.9258 65.5078 19.2305 64.3828 16.6992 62.9297C14.168 61.4766 11.8945 59.7188 9.87891 57.6562C7.86328 55.5938 6.10547 53.3086 4.60547 50.8008C3.10547 48.293 1.96875 45.6094 1.19531 42.75C0.421875 39.8906 0.0234375 36.8906 0 33.75C0 30.6328 0.398438 27.6445 1.19531 24.7852C1.99219 21.9258 3.11719 19.2305 4.57031 16.6992C6.02344 14.168 7.78125 11.8945 9.84375 9.87891C11.9062 7.86328 14.1914 6.10547 16.6992 4.60547C19.207 3.10547 21.8906 1.96875 24.75 1.19531C27.6094 0.421875 30.6094 0.0234375 33.75 0ZM33.75 63C36.4453 63 39.0352 62.6484 41.5195 61.9453C44.0039 61.2422 46.3242 60.2578 48.4805 58.9922C50.6367 57.7266 52.6172 56.2031 54.4219 54.4219C56.2266 52.6406 57.75 50.6719 58.9922 48.5156C60.2344 46.3594 61.2188 44.0273 61.9453 41.5195C62.6719 39.0117 63.0234 36.4219 63 33.75C63 31.0547 62.6484 28.4648 61.9453 25.9805C61.2422 23.4961 60.2578 21.1758 58.9922 19.0195C57.7266 16.8633 56.2031 14.8828 54.4219 13.0781C52.6406 11.2734 50.6719 9.75 48.5156 8.50781C46.3594 7.26562 44.0273 6.28125 41.5195 5.55469C39.0117 4.82812 36.4219 4.47656 33.75 4.5C31.0547 4.5 28.4648 4.85156 25.9805 5.55469C23.4961 6.25781 21.1758 7.24219 19.0195 8.50781C16.8633 9.77344 14.8828 11.2969 13.0781 13.0781C11.2734 14.8594 9.75 16.8281 8.50781 18.9844C7.26562 21.1406 6.28125 23.4727 5.55469 25.9805C4.82812 28.4883 4.47656 31.0781 4.5 33.75C4.5 36.4453 4.85156 39.0352 5.55469 41.5195C6.25781 44.0039 7.24219 46.3242 8.50781 48.4805C9.77344 50.6367 11.2969 52.6172 13.0781 54.4219C14.8594 56.2266 16.8281 57.75 18.9844 58.9922C21.1406 60.2344 23.4727 61.2188 25.9805 61.9453C28.4883 62.6719 31.0781 63.0234 33.75 63ZM25.5586 31.5H49.5V36H25.5586L35.332 45.6328L32.168 48.8672L16.9102 33.75L32.168 18.6328L35.332 21.8672L25.5586 31.5Z" fill="#F39700"/>
</svg>
