<svg width="200" height="200" viewBox="0 0 200 200" fill="none" xmlns="http://www.w3.org/2000/svg">
<rect width="200" height="200" rx="24" fill="url(#paint0_linear_105_1000)"/>
<path d="M51.08 140.92V142.62H53.18V143.98H51.08V145.68H55V140.92H51.08ZM50 140.92V146.92H51.8V140.92H50ZM49.44 131.8V133.74H58.94V131.8H49.44ZM48.9 137.98V140.04H59.4V137.98H48.9ZM56.04 138.9V146.42C56.04 146.66 55.96 146.74 55.66 146.74C55.38 146.74 54.4 146.74 53.52 146.7C53.84 147.28 54.24 148.18 54.36 148.82C55.66 148.82 56.64 148.76 57.36 148.44C58.1 148.08 58.32 147.52 58.32 146.46V138.9H56.04ZM53.18 130.1C53.06 133.68 52.74 135.48 48.98 136.46C49.4 136.84 49.94 137.62 50.12 138.14C54.58 136.9 55.22 134.44 55.36 130.1H53.18ZM53.2 135.28C54.58 136.1 56.54 137.32 57.48 138.04L58.96 136.48C57.94 135.76 55.96 134.64 54.6 133.9L53.2 135.28ZM42.56 133.86V135.66H48.06V133.86H42.56ZM42.56 136.9V138.72H48.06V136.9H42.56ZM44.52 131.92V140.94H46.28V131.92H44.52ZM45.22 142.62C45.6 143.44 45.96 144.52 46.06 145.22L46.98 144.86C46.86 144.18 46.48 143.1 46.1 142.32L45.22 142.62ZM44 142.88C44.28 143.92 44.52 145.28 44.56 146.16L45.54 145.92C45.5 145.08 45.24 143.74 44.94 142.7L44 142.88ZM42.76 143.02C42.92 144.22 42.98 145.72 42.92 146.74L43.94 146.6C44 145.62 43.92 144.08 43.74 142.9L42.76 143.02ZM41.28 142.62C41.14 143.98 40.84 145.88 40.46 147.06L41.72 147.58C42.08 146.38 42.32 144.44 42.5 143.04L41.28 142.62ZM46.92 139.94V140.28C46.74 144.66 46.54 146.28 46.24 146.66C46.1 146.88 45.94 146.92 45.7 146.92C45.44 146.92 44.92 146.92 44.34 146.86C44.6 147.36 44.78 148.14 44.82 148.72C45.54 148.74 46.2 148.72 46.62 148.66C47.12 148.6 47.48 148.42 47.82 147.96C48.3 147.32 48.52 145.48 48.74 140.76C48.76 140.5 48.78 139.94 48.78 139.94H46.92ZM48.4 130.76H41.44V141.82H47.66V139.94H43.24V132.64H48.4V130.76ZM68.72 132.08V148.78H71.26V132.08H68.72ZM65.06 136.64V143.26H67.3V136.64H65.06ZM61.24 134.04V136.2H78.74V134.04H61.24ZM61.84 137.72V139.58H66.42V137.72H61.84ZM76.18 130C72.62 130.62 67.18 131 62.44 131.12C62.66 131.66 62.92 132.56 62.96 133.14C67.66 133.1 73.24 132.76 77.22 132.08L76.18 130ZM69 140.18C67.4 142.9 64.18 145.2 60.46 146.2C60.98 146.7 61.68 147.62 62.02 148.2C65.84 146.92 68.98 144.24 70.84 140.84L69 140.18ZM71 140.2L69.22 140.8C71.04 144.26 74.1 146.98 77.9 148.26C78.26 147.64 78.94 146.72 79.44 146.24C75.76 145.26 72.58 142.94 71 140.2ZM61.22 141.12L61.62 143.1C63.1 142.86 64.84 142.58 66.58 142.28L66.5 140.52C64.54 140.76 62.6 140.98 61.22 141.12ZM72.64 136.58V140.88C72.64 142.82 73.06 143.44 75 143.44C75.38 143.44 76.44 143.44 76.84 143.44C78.22 143.44 78.8 142.92 79.06 141.04C78.44 140.92 77.54 140.58 77.12 140.26C77.08 141.3 76.98 141.46 76.6 141.46C76.36 141.46 75.54 141.46 75.34 141.46C74.9 141.46 74.84 141.38 74.84 140.86V136.58H72.64ZM77 137.2C76.06 137.7 74.64 138.3 73.4 138.7C73.62 139.16 73.88 139.86 73.98 140.3C75.32 139.96 77 139.48 78.38 138.92L77 137.2ZM90.64 137.5V139.76H97.22V137.5H90.64ZM89.66 137.5V145.38C89.66 147.94 90.42 148.64 92.92 148.64C93.44 148.64 95.68 148.64 96.24 148.64C98.5 148.64 99.18 147.66 99.48 144.34C98.8 144.18 97.78 143.78 97.24 143.38C97.12 145.9 96.96 146.36 96.06 146.36C95.52 146.36 93.66 146.36 93.22 146.36C92.26 146.36 92.08 146.24 92.08 145.38V137.5H89.66ZM89.6 131.02V133.3H95.98V140.78H98.4V131.02H89.6ZM81.56 136.16V137.96H88.02V136.16H81.56ZM81.68 130.64V132.46H88.08V130.64H81.68ZM81.56 138.88V140.7H88.02V138.88H81.56ZM80.58 133.34V135.24H88.82V133.34H80.58ZM82.66 141.66V143.56H85.86V145.84H82.66V147.74H87.96V141.66H82.66ZM81.5 141.66V148.54H83.58V141.66H81.5ZM110.96 131.36V133.12H116.4V131.36H110.96ZM110.74 134.42V136.18H116.24V134.42H110.74ZM108.6 137.42V139.38H119.3V137.42H108.6ZM115.56 131.36V131.6C115.4 133.14 115.04 135.98 114.66 138.14L116.94 138.34C117.28 136.24 117.66 133.6 117.86 131.44L116.18 131.26L115.8 131.36H115.56ZM110.56 130C110.24 132.14 109.7 134.92 109.26 136.62L111.54 136.8C111.92 135.12 112.46 132.38 112.82 130.2L110.56 130ZM107.82 145.92L108.96 147.74C110.14 146.96 111.58 145.98 112.84 145.04L112.16 143.32C110.56 144.32 108.92 145.32 107.82 145.92ZM108.66 140.76C109.38 141.56 110.16 142.7 110.44 143.46L112.18 142.38C111.84 141.62 111.02 140.54 110.28 139.78L108.66 140.76ZM117.4 139.76C117.02 140.58 116.32 141.74 115.76 142.46L117.26 143.28C117.86 142.62 118.58 141.64 119.3 140.68L117.4 139.76ZM112.72 138.28V146.52C112.72 146.72 112.66 146.78 112.44 146.78C112.26 146.78 111.66 146.8 111.1 146.76C111.36 147.32 111.66 148.2 111.74 148.8C112.82 148.8 113.62 148.78 114.22 148.44C114.86 148.08 115 147.52 115 146.54V138.28H112.72ZM114.94 139.72L113.3 140.04C114.1 143.6 115.54 146.44 118.24 147.86C118.54 147.26 119.2 146.4 119.66 146C117.14 144.96 115.64 142.58 114.94 139.72ZM102 135V137H107.78V135H102ZM101.04 138.46V140.5H108.34V138.46H101.04ZM101.24 141.62C101.54 142.74 101.82 144.18 101.86 145.14L103.48 144.72C103.38 143.76 103.1 142.36 102.76 141.24L101.24 141.62ZM100.82 146.2L101.28 148.38C103.32 147.96 106.02 147.42 108.54 146.88L108.38 144.88C105.62 145.4 102.74 145.92 100.82 146.2ZM106.78 141.08C106.64 142.04 106.34 143.44 106.08 144.34L107.52 144.74C107.82 143.9 108.14 142.64 108.5 141.5L106.78 141.08ZM103.78 135.8V146.94L105.84 146.58V135.8H103.78ZM103.68 130.02C103.06 131.58 101.88 133.46 100.2 134.9C100.64 135.22 101.32 135.98 101.64 136.46C103.62 134.66 104.84 132.6 105.62 131.08V130.46H104.94V130.02H103.68ZM103.98 130.02V131.72H104.4C105.5 132.62 106.86 134.3 107.5 135.3L109.04 133.46C108.32 132.44 106.82 131.02 105.66 130.02H103.98ZM126.46 142.6H133.24V143.62H126.46V142.6ZM126.46 140.08H133.24V141.08H126.46V140.08ZM124.1 138.5V145.2H135.74V138.5H124.1ZM121.04 132.26V134.32H138.96V132.26H121.04ZM128.72 130.02V137.94H131.1V130.02H128.72ZM127.62 132.9C126.18 135.02 123.36 136.98 120.46 137.9C120.96 138.36 121.66 139.24 122 139.82C125.06 138.62 127.9 136.34 129.62 133.66L127.62 132.9ZM132.1 132.88L130.16 133.62C131.92 136.28 134.82 138.54 137.9 139.68C138.24 139.08 138.94 138.16 139.46 137.72C136.48 136.84 133.56 134.96 132.1 132.88ZM121.22 146.12V148.24H138.8V146.12H121.22ZM150.02 139.74V141.46H154V139.74H150.02ZM150.26 132.96V135.16H157.48V132.96H150.26ZM150.26 136.72V138.54H153.1V142.74H150.26V144.56H155.12V136.72H150.26ZM148.94 136.72V145.46H150.96V136.72H148.94ZM156.72 132.96V133.46C156.6 142.12 156.46 145.58 155.9 146.24C155.68 146.52 155.46 146.58 155.1 146.58C154.58 146.58 153.52 146.58 152.32 146.5C152.72 147.12 153.02 148.12 153.06 148.74C154.2 148.8 155.38 148.82 156.12 148.7C156.92 148.58 157.44 148.34 157.96 147.58C158.7 146.54 158.84 143.36 159 134.08C159 133.78 159 132.96 159 132.96H156.72ZM150.4 130C149.72 132.56 148.46 135.1 146.88 136.64C147.44 137.02 148.44 137.84 148.86 138.28C150.5 136.44 151.96 133.54 152.82 130.56L150.4 130ZM141.5 136.16V137.96H147.36V136.16H141.5ZM141.56 130.64V132.46H147.3V130.64H141.56ZM141.5 138.88V140.7H147.36V138.88H141.5ZM140.58 133.34V135.24H147.88V133.34H140.58ZM142.54 141.66V143.56H145.38V145.84H142.54V147.74H147.38V141.66H142.54ZM141.46 141.66V148.54H143.42V141.66H141.46Z" fill="white"/>
<path d="M127 91V61C127 59.4087 126.368 57.8826 125.243 56.7574C124.117 55.6321 122.591 55 121 55H79C77.4087 55 75.8826 55.6321 74.7574 56.7574C73.6321 57.8826 73 59.4087 73 61V103C73 104.591 73.6321 106.117 74.7574 107.243C75.8826 108.368 77.4087 109 79 109H109M127 91V91.516C127 93.1072 126.367 94.633 125.242 95.758L113.758 107.242C112.633 108.367 111.107 109 109.516 109H109M127 91H115C113.409 91 111.883 91.6321 110.757 92.7574C109.632 93.8826 109 95.4087 109 97V109M85 67H115M85 79H115M85 91H97" stroke="white" stroke-width="5.5" stroke-linecap="round" stroke-linejoin="round"/>
<defs>
<linearGradient id="paint0_linear_105_1000" x1="267.5" y1="3.06014e-06" x2="19" y2="105" gradientUnits="userSpaceOnUse">
<stop stop-color="#FCDE90"/>
<stop offset="1" stop-color="#F39700"/>
</linearGradient>
</defs>
</svg>
