<svg width="200" height="200" viewBox="0 0 200 200" fill="none" xmlns="http://www.w3.org/2000/svg">
<rect width="200" height="200" rx="24" fill="url(#paint0_linear_105_976)"/>
<path d="M80.5 67.5625C80.5 66.5037 80.7085 65.4553 81.1137 64.4771C81.5189 63.4989 82.1128 62.6101 82.8615 61.8615C83.6101 61.1128 84.4989 60.5189 85.4771 60.1137C86.4553 59.7085 87.5037 59.5 88.5625 59.5C89.6213 59.5 90.6697 59.7085 91.6479 60.1137C92.6261 60.5189 93.5149 61.1128 94.2635 61.8615C95.0122 62.6101 95.6061 63.4989 96.0113 64.4771C96.4165 65.4553 96.625 66.5037 96.625 67.5625C96.625 69.7008 95.7756 71.7515 94.2635 73.2635C92.7515 74.7756 90.7008 75.625 88.5625 75.625C86.4242 75.625 84.3735 74.7756 82.8615 73.2635C81.3494 71.7515 80.5 69.7008 80.5 67.5625ZM88.5625 54.125C84.9987 54.125 81.5808 55.5407 79.0608 58.0608C76.5407 60.5808 75.125 63.9987 75.125 67.5625C75.125 71.1263 76.5407 74.5442 79.0608 77.0642C81.5808 79.5843 84.9987 81 88.5625 81C92.1263 81 95.5442 79.5843 98.0642 77.0642C100.584 74.5442 102 71.1263 102 67.5625C102 63.9987 100.584 60.5808 98.0642 58.0608C95.5442 55.5407 92.1263 54.125 88.5625 54.125ZM115.438 70.25C115.438 68.8245 116.004 67.4573 117.012 66.4493C118.02 65.4413 119.387 64.875 120.812 64.875C122.238 64.875 123.605 65.4413 124.613 66.4493C125.621 67.4573 126.188 68.8245 126.188 70.25C126.188 71.6755 125.621 73.0427 124.613 74.0507C123.605 75.0587 122.238 75.625 120.812 75.625C119.387 75.625 118.02 75.0587 117.012 74.0507C116.004 73.0427 115.438 71.6755 115.438 70.25ZM120.812 59.5C117.961 59.5 115.227 60.6326 113.211 62.6486C111.195 64.6646 110.062 67.3989 110.062 70.25C110.062 73.1011 111.195 75.8354 113.211 77.8514C115.227 79.8674 117.961 81 120.812 81C123.664 81 126.398 79.8674 128.414 77.8514C130.43 75.8354 131.562 73.1011 131.562 70.25C131.562 67.3989 130.43 64.6646 128.414 62.6486C126.398 60.6326 123.664 59.5 120.812 59.5ZM67.0625 94.4375C67.0625 92.2992 67.9119 90.2485 69.424 88.7365C70.936 87.2244 72.9867 86.375 75.125 86.375H102C104.138 86.375 106.189 87.2244 107.701 88.7365C109.213 90.2485 110.062 92.2992 110.062 94.4375V95.0395C110.057 95.2857 110.039 95.5315 110.009 95.7759C109.702 98.3816 108.733 100.865 107.192 102.989C104.252 107.047 98.6621 110.562 88.5625 110.562C78.4683 110.562 72.8783 107.047 69.9274 102.989C68.3888 100.865 67.421 98.3811 67.1162 95.7759C67.0895 95.5311 67.0716 95.2855 67.0625 95.0395V94.4375ZM72.4375 94.9212V94.9589L72.459 95.2222C72.6672 96.8862 73.292 98.4706 74.2758 99.8286C76.028 102.237 79.8442 105.188 88.5625 105.188C97.2808 105.188 101.097 102.237 102.849 99.8286C103.833 98.4706 104.458 96.8862 104.666 95.2222C104.676 95.1329 104.683 95.0433 104.688 94.9535V94.4375C104.688 93.7247 104.404 93.0412 103.9 92.5371C103.396 92.0331 102.713 91.75 102 91.75H75.125C74.4122 91.75 73.7287 92.0331 73.2247 92.5371C72.7206 93.0412 72.4375 93.7247 72.4375 94.4375V94.9212ZM120.812 105.188C117.652 105.188 115.061 104.704 112.965 103.908C113.827 102.33 114.479 100.646 114.905 98.8988C116.346 99.4416 118.259 99.8125 120.812 99.8125C126.827 99.8125 129.294 97.7592 130.38 96.2327C131.015 95.3424 131.417 94.3079 131.552 93.2228L131.562 93.0723C131.557 92.7196 131.413 92.3833 131.161 92.1359C130.91 91.8886 130.571 91.75 130.219 91.75H115.169C114.772 89.8009 113.946 87.9647 112.75 86.375H130.219C133.927 86.375 136.938 89.385 136.938 93.0938V93.1851C136.931 93.3809 136.917 93.5764 136.895 93.771C136.667 95.7855 135.931 97.7091 134.755 99.361C132.487 102.538 128.235 105.188 120.812 105.188Z" fill="white"/>
<path d="M45.9 146.52V148.28H55.66V146.52H45.9ZM48.76 134.22V136.62H51.08V134.22H48.76ZM41.38 135.6V139.58H43.64V137.4H56.44V139.58H58.78V135.6H41.38ZM45.82 138.24V139.96H53.22V141H45.82V142.72H55.62V138.24H45.82ZM45.92 143.62V145.38H54.74V148.82H57.14V143.62H45.92ZM44.5 138.24V148.84H46.78V138.24H44.5ZM43.4 131.42V133.3H49.7V131.42H43.4ZM51.5 131.42V133.3H59.26V131.42H51.5ZM43.48 129.86C42.86 131.38 41.72 132.94 40.52 133.94C41.06 134.22 42.02 134.86 42.48 135.22C43.66 134.08 44.94 132.26 45.72 130.46L43.48 129.86ZM51.62 129.86C51.04 131.32 49.92 132.78 48.64 133.7C49.24 133.96 50.26 134.48 50.74 134.84C51.94 133.8 53.18 132.14 53.9 130.42L51.62 129.86ZM44.14 132.88C44.62 133.6 45.14 134.62 45.32 135.24L47.48 134.62C47.24 133.98 46.68 133.02 46.18 132.34L44.14 132.88ZM53.08 132.94C53.64 133.64 54.3 134.66 54.56 135.26L56.78 134.64C56.46 134 55.76 133.04 55.18 132.38L53.08 132.94ZM70.26 136.46H76.32V138.18H70.26V136.46ZM70.26 132.9H76.32V134.58H70.26V132.9ZM68.1 130.86V140.2H78.6V130.86H68.1ZM67.96 141.92V144.08H78.82V141.92H67.96ZM66.56 146V148.16H79.48V146H66.56ZM60.7 131.16V133.4H67.34V131.16H60.7ZM60.9 136.92V139.14H67V136.92H60.9ZM60.48 144.52L61.02 146.96C62.94 146.34 65.34 145.56 67.58 144.8L67.16 142.5C64.76 143.28 62.2 144.08 60.48 144.52ZM62.92 132.04V144.7L65.2 144.34V132.04H62.92ZM72.32 131.72V139.26H72.1V147.02H74.56V139.26H74.34V131.72H72.32ZM85.02 137.3H94.9V139.82H85.02V137.3ZM83.02 135.82V141.3H97.02V135.82H83.02ZM86.46 133.54V135.1H93.52V133.54H86.46ZM88.92 136.3V140.52H90.86V136.3H88.92ZM89.88 131.88C91.82 133.68 95.36 135.54 98.14 136.48C98.5 135.86 99.02 135.04 99.54 134.5C96.44 133.72 93.2 132.14 90.92 130.02H88.64C87 131.8 83.72 133.68 80.44 134.66C80.86 135.16 81.42 136.02 81.68 136.56C84.84 135.46 88.1 133.6 89.88 131.88ZM85.72 137.74C86.06 138.44 86.34 139.36 86.42 139.96L88.18 139.44C88.06 138.84 87.74 137.96 87.38 137.28L85.72 137.74ZM92.34 137.2C92.18 137.86 91.8 138.84 91.52 139.5L93.16 139.94C93.48 139.38 93.88 138.54 94.32 137.68L92.34 137.2ZM84.12 141.94V148.8H86.48V143.5H93.5V148.74H95.96V141.94H84.12ZM85.48 144.3V145.88H94.52V144.3H85.48ZM85.48 146.7V148.26H94.52V146.7H85.48ZM105.96 132.52H114.08V133.8H105.96V132.52ZM103.56 130.66V135.68H116.64V130.66H103.56ZM105.04 140.44H114.86V141.28H105.04V140.44ZM105.04 142.82H114.86V143.68H105.04V142.82ZM105.04 138.06H114.86V138.9H105.04V138.06ZM102.64 136.42V145.3H117.36V136.42H102.64ZM106.52 144.9C105.26 145.68 102.7 146.62 100.6 147.08C101.18 147.54 101.98 148.3 102.42 148.8C104.46 148.32 107.06 147.34 108.66 146.4L106.52 144.9ZM110.92 146.52C113.06 147.12 115.82 148.12 117.38 148.84L119.48 147.14C117.82 146.5 115.14 145.56 113.02 145L110.92 146.52ZM121.58 131.94C122.96 132.36 124.86 133.08 125.78 133.58L126.86 131.76C125.86 131.28 123.96 130.64 122.62 130.32L121.58 131.94ZM120.7 135.34L121.6 137.42C123.1 137 124.94 136.46 126.68 135.94L126.46 134.06C124.34 134.54 122.18 135.06 120.7 135.34ZM129.56 131.36L128.22 133.04H137.24V131.36H129.56ZM136.68 131.36V131.62C136.34 132.48 135.74 133.52 135.2 134.16L137.06 134.72C137.72 133.98 138.44 132.78 138.96 131.68L137.38 131.28L137.02 131.36H136.68ZM131.6 132.06C131.3 134.08 130.52 135.24 126.66 135.84C127.06 136.26 127.56 137.06 127.76 137.54C132.24 136.64 133.36 134.92 133.76 132.06H131.6ZM133.62 132.58L131.7 132.76C132.22 134.88 133.2 137.06 138.2 137.86C138.42 137.26 138.94 136.36 139.38 135.88C134.84 135.36 133.96 134.06 133.62 132.58ZM129.5 130.02C128.96 131.18 127.98 132.52 126.52 133.52C127.08 133.74 127.9 134.24 128.32 134.66C129.84 133.42 130.82 131.96 131.6 130.36L129.5 130.02ZM125.74 140.9H134.44V141.76H125.74V140.9ZM125.74 143.12H134.44V144H125.74V143.12ZM125.74 138.7H134.44V139.54H125.74V138.7ZM123.42 137.26V145.42H136.86V137.26H123.42ZM131.12 146.46C133.14 147.22 135.2 148.18 136.32 148.86L139.12 147.78C137.7 147.08 135.22 146.08 133.12 145.32L131.12 146.46ZM126.68 145.26C125.32 146.02 122.94 146.72 120.82 147.12C121.36 147.52 122.18 148.4 122.6 148.88C124.64 148.3 127.24 147.3 128.88 146.24L126.68 145.26ZM148.4 130.8V133.08H156.16V130.8H148.4ZM148.18 137.52V139.76H154.52V137.52H148.18ZM150.36 132.32V137.36C150.36 140.56 150.06 144.3 147.2 147.12C147.76 147.48 148.58 148.3 148.96 148.82C152.28 145.58 152.64 141.18 152.64 137.38V132.32H150.36ZM154.92 130.8C154.94 139.3 154.78 147.74 157.18 148.64C158.46 149.2 159.52 148.52 159.84 145.38C159.5 145.02 158.9 144.06 158.52 143.44C158.48 144.82 158.34 146.22 158.22 146.18C157.26 145.9 157.18 137.62 157.38 130.8H154.92ZM141.54 136.16V137.96H147.58V136.16H141.54ZM141.6 130.64V132.46H147.52V130.64H141.6ZM141.54 138.88V140.7H147.58V138.88H141.54ZM140.58 133.34V135.24H148.24V133.34H140.58ZM142.58 141.66V143.56H145.56V145.84H142.58V147.74H147.6V141.66H142.58ZM141.5 141.66V148.54H143.52V141.66H141.5Z" fill="white"/>
<defs>
<linearGradient id="paint0_linear_105_976" x1="267.5" y1="3.06014e-06" x2="19" y2="105" gradientUnits="userSpaceOnUse">
<stop stop-color="#FCDE90"/>
<stop offset="1" stop-color="#F39700"/>
</linearGradient>
</defs>
</svg>
