<svg width="200" height="200" viewBox="0 0 200 200" fill="none" xmlns="http://www.w3.org/2000/svg">
<rect width="200" height="200" rx="24" fill="url(#paint0_linear_105_999)"/>
<path d="M51.08 140.92V142.62H53.18V143.98H51.08V145.68H55V140.92H51.08ZM50 140.92V146.92H51.8V140.92H50ZM49.44 131.8V133.74H58.94V131.8H49.44ZM48.9 137.98V140.04H59.4V137.98H48.9ZM56.04 138.9V146.42C56.04 146.66 55.96 146.74 55.66 146.74C55.38 146.74 54.4 146.74 53.52 146.7C53.84 147.28 54.24 148.18 54.36 148.82C55.66 148.82 56.64 148.76 57.36 148.44C58.1 148.08 58.32 147.52 58.32 146.46V138.9H56.04ZM53.18 130.1C53.06 133.68 52.74 135.48 48.98 136.46C49.4 136.84 49.94 137.62 50.12 138.14C54.58 136.9 55.22 134.44 55.36 130.1H53.18ZM53.2 135.28C54.58 136.1 56.54 137.32 57.48 138.04L58.96 136.48C57.94 135.76 55.96 134.64 54.6 133.9L53.2 135.28ZM42.56 133.86V135.66H48.06V133.86H42.56ZM42.56 136.9V138.72H48.06V136.9H42.56ZM44.52 131.92V140.94H46.28V131.92H44.52ZM45.22 142.62C45.6 143.44 45.96 144.52 46.06 145.22L46.98 144.86C46.86 144.18 46.48 143.1 46.1 142.32L45.22 142.62ZM44 142.88C44.28 143.92 44.52 145.28 44.56 146.16L45.54 145.92C45.5 145.08 45.24 143.74 44.94 142.7L44 142.88ZM42.76 143.02C42.92 144.22 42.98 145.72 42.92 146.74L43.94 146.6C44 145.62 43.92 144.08 43.74 142.9L42.76 143.02ZM41.28 142.62C41.14 143.98 40.84 145.88 40.46 147.06L41.72 147.58C42.08 146.38 42.32 144.44 42.5 143.04L41.28 142.62ZM46.92 139.94V140.28C46.74 144.66 46.54 146.28 46.24 146.66C46.1 146.88 45.94 146.92 45.7 146.92C45.44 146.92 44.92 146.92 44.34 146.86C44.6 147.36 44.78 148.14 44.82 148.72C45.54 148.74 46.2 148.72 46.62 148.66C47.12 148.6 47.48 148.42 47.82 147.96C48.3 147.32 48.52 145.48 48.74 140.76C48.76 140.5 48.78 139.94 48.78 139.94H46.92ZM48.4 130.76H41.44V141.82H47.66V139.94H43.24V132.64H48.4V130.76ZM68.72 132.08V148.78H71.26V132.08H68.72ZM65.06 136.64V143.26H67.3V136.64H65.06ZM61.24 134.04V136.2H78.74V134.04H61.24ZM61.84 137.72V139.58H66.42V137.72H61.84ZM76.18 130C72.62 130.62 67.18 131 62.44 131.12C62.66 131.66 62.92 132.56 62.96 133.14C67.66 133.1 73.24 132.76 77.22 132.08L76.18 130ZM69 140.18C67.4 142.9 64.18 145.2 60.46 146.2C60.98 146.7 61.68 147.62 62.02 148.2C65.84 146.92 68.98 144.24 70.84 140.84L69 140.18ZM71 140.2L69.22 140.8C71.04 144.26 74.1 146.98 77.9 148.26C78.26 147.64 78.94 146.72 79.44 146.24C75.76 145.26 72.58 142.94 71 140.2ZM61.22 141.12L61.62 143.1C63.1 142.86 64.84 142.58 66.58 142.28L66.5 140.52C64.54 140.76 62.6 140.98 61.22 141.12ZM72.64 136.58V140.88C72.64 142.82 73.06 143.44 75 143.44C75.38 143.44 76.44 143.44 76.84 143.44C78.22 143.44 78.8 142.92 79.06 141.04C78.44 140.92 77.54 140.58 77.12 140.26C77.08 141.3 76.98 141.46 76.6 141.46C76.36 141.46 75.54 141.46 75.34 141.46C74.9 141.46 74.84 141.38 74.84 140.86V136.58H72.64ZM77 137.2C76.06 137.7 74.64 138.3 73.4 138.7C73.62 139.16 73.88 139.86 73.98 140.3C75.32 139.96 77 139.48 78.38 138.92L77 137.2ZM88.06 140.62C88.5 141.32 88.9 142.26 89.04 142.86L90.24 142.44C90.12 141.84 89.68 140.94 89.22 140.26L88.06 140.62ZM84.72 139.1C85.44 139.64 86.3 140.44 86.68 141.02L87.48 139.96C87.08 139.42 86.22 138.68 85.5 138.18L84.72 139.1ZM86.94 136.9C86.66 137.46 86.12 138.32 85.7 138.88L86.74 139.34C87.2 138.86 87.78 138.14 88.34 137.44L86.94 136.9ZM88.3 138.36C87.62 139.32 86.4 140.74 85.44 141.6L86.36 142.06C87.32 141.28 88.56 140 89.54 138.92L88.3 138.36ZM90.4 142.82V148.42H92.02V142.82H90.4ZM84.56 141.44L84.7 142.74C86.06 142.64 87.64 142.5 89.3 142.34L89.28 141.12C87.48 141.26 85.8 141.36 84.56 141.44ZM93.12 140.5C93.6 141.28 94.06 142.3 94.2 142.98L95.46 142.56C95.3 141.88 94.82 140.88 94.32 140.16L93.12 140.5ZM89.48 139C90.26 139.6 91.18 140.5 91.58 141.1L92.48 140.1C92.06 139.52 91.12 138.68 90.34 138.12L89.48 139ZM91.8 136.88C91.48 137.5 90.86 138.44 90.4 139.02L91.46 139.5C91.98 138.98 92.62 138.2 93.24 137.44L91.8 136.88ZM93.22 138.38C92.5 139.38 91.2 140.84 90.18 141.7L91.12 142.2C92.16 141.38 93.46 140.08 94.5 138.96L93.22 138.38ZM89.88 141.44L90.16 142.74C91.46 142.62 92.98 142.52 94.52 142.36L94.5 141.16C92.74 141.28 91.12 141.38 89.88 141.44ZM85.16 143.14V146.2H88.8V144.88H86.64V143.14H85.16ZM93.28 143.14V144.88H91.68V146.2H94.76V143.14H93.28ZM87.84 142.82V144.7C87.84 145.76 87.56 146.78 85.48 147.4C85.82 147.7 86.32 148.32 86.52 148.7C89.06 147.82 89.44 146.32 89.44 144.76V142.82H87.84ZM82.76 133.34V134.78H87.78V133.34H82.76ZM91.96 133.34V134.78H97.04V133.34H91.96ZM96.22 130.78V146.04C96.22 146.3 96.14 146.4 95.88 146.4C95.62 146.4 94.82 146.4 94.08 146.36C94.38 146.98 94.68 148.06 94.76 148.7C96.08 148.7 97 148.66 97.68 148.26C98.36 147.86 98.54 147.2 98.54 146.06V130.78H96.22ZM82.98 130.78V132.4H87.06V135.7H82.98V137.32H89.32V130.78H82.98ZM97.42 130.78H90.62V137.32H97.42V135.7H92.9V132.4H97.42V130.78ZM81.56 130.78V148.8H83.84V130.78H81.56ZM100.9 137.08V139.46H119.12V137.08H100.9ZM109.84 132.46V134.76H116.96V132.46H109.84ZM108.28 130.02V138.22H110.82V130.02H108.28ZM108.28 138.62V148.78H110.82V138.62H108.28ZM110.1 142.44C112.2 143.12 115.18 144.3 116.64 145.06L117.92 142.9C116.36 142.14 113.3 141.08 111.3 140.5L110.1 142.44ZM129.68 130.6V132.98C129.68 134.34 129.48 135.94 127.66 137.14C128.14 137.44 129.1 138.24 129.44 138.68C131.54 137.24 131.96 134.92 131.96 133.04V130.6H129.68ZM134.18 130.6V135.12C134.18 137.12 134.66 137.74 136.26 137.74C136.58 137.74 137.12 137.74 137.44 137.74C138.76 137.74 139.32 137.04 139.52 134.54C138.92 134.4 137.98 134.04 137.56 133.7C137.52 135.44 137.44 135.7 137.2 135.7C137.08 135.7 136.78 135.7 136.68 135.7C136.46 135.7 136.44 135.64 136.44 135.08V130.6H134.18ZM131.58 140.8L129.46 141.48C131.18 145.06 134 147.6 138 148.78C138.32 148.18 139.02 147.2 139.56 146.72C135.8 145.8 132.94 143.64 131.58 140.8ZM136.06 138.64V139C135.02 143.06 131.84 145.66 127.68 146.68C128.12 147.18 128.72 148.18 128.96 148.78C133.64 147.36 137.1 144.48 138.48 139.12L136.92 138.56L136.5 138.64H136.06ZM128.72 138.64V140.8H137V138.64H128.72ZM130.6 130.6V132.7H135.4V130.6H130.6ZM121.56 136.16V137.96H127.74V136.16H121.56ZM121.62 130.64V132.46H127.7V130.64H121.62ZM121.56 138.88V140.7H127.74V138.88H121.56ZM120.58 133.34V135.24H128.46V133.34H120.58ZM122.66 141.66V143.56H125.66V145.84H122.66V147.74H127.72V141.66H122.66ZM121.5 141.66V148.54H123.52V141.66H121.5ZM144.46 136.06V138.34H155.52V136.06H144.46ZM149.98 140.86V143.1H156.74V140.86H149.98ZM148.72 137.38V146.74L151.24 147.04V137.38H148.72ZM143.94 139.46C143.6 142.9 142.6 145.68 140.44 147.28C141 147.64 142.02 148.5 142.42 148.92C144.7 146.96 145.94 143.78 146.46 139.72L143.94 139.46ZM145.88 141.96L143.92 142.62C145.64 147.66 148.76 148.6 153.38 148.6H158.42C158.52 147.88 158.92 146.72 159.26 146.16C157.92 146.2 154.58 146.2 153.52 146.2C149.96 146.2 147.16 145.64 145.88 141.96ZM148.68 130.04V133.7H151.24V130.04H148.68ZM141.4 132.06V137.08H143.76V134.34H156.12V137.08H158.6V132.06H141.4Z" fill="white"/>
<path d="M128.031 51.5312H71.9688C70.6205 51.5312 69.5312 52.6205 69.5312 53.9688V110.031C69.5312 111.379 70.6205 112.469 71.9688 112.469H128.031C129.379 112.469 130.469 111.379 130.469 110.031V53.9688C130.469 52.6205 129.379 51.5312 128.031 51.5312ZM124.984 106.984H75.0156V57.0156H124.984V106.984ZM86.8984 95.0254V100.891C86.8984 101.226 87.1727 101.5 87.5078 101.5H91.1641C91.4992 101.5 91.7734 101.226 91.7734 100.891V95.0254C91.0041 95.2768 90.1891 95.4062 89.3359 95.4062C88.4828 95.4062 87.6678 95.2691 86.8984 95.0254ZM91.7734 79.9434V63.1094C91.7734 62.7742 91.4992 62.5 91.1641 62.5H87.5078C87.1727 62.5 86.8984 62.7742 86.8984 63.1094V79.9434C87.6678 79.692 88.4828 79.5625 89.3359 79.5625C90.1891 79.5625 91.0041 79.6996 91.7734 79.9434ZM86.8984 95.0254C87.6678 95.2768 88.4828 95.4062 89.3359 95.4062C90.1891 95.4062 91.0041 95.2691 91.7734 95.0254C94.9574 93.9971 97.2578 91.0111 97.2578 87.4844C97.2578 83.9576 94.9574 80.9717 91.7734 79.9434C91.0041 79.692 90.1891 79.5625 89.3359 79.5625C88.4828 79.5625 87.6678 79.6996 86.8984 79.9434C83.7145 80.9717 81.4141 83.9576 81.4141 87.4844C81.4141 91.0111 83.7145 93.9971 86.8984 95.0254ZM86.9061 86.2123C86.9289 86.1666 86.9594 86.1209 86.9822 86.0752V86.0676L87.0736 85.9305C87.0812 85.9152 87.0889 85.9076 87.0965 85.8924C87.1193 85.8543 87.1498 85.8238 87.1727 85.7857C87.1803 85.7781 87.1879 85.7629 87.1955 85.7553C87.2336 85.7096 87.2641 85.6715 87.3021 85.6334L87.325 85.6105L87.4164 85.5191L87.4469 85.4887C87.485 85.4506 87.523 85.4201 87.5687 85.382C87.6145 85.3439 87.6525 85.3135 87.6982 85.283C87.7135 85.2754 87.7211 85.2678 87.7363 85.2602C87.7744 85.2373 87.8049 85.2068 87.843 85.184C87.8506 85.1764 87.8658 85.1688 87.8734 85.1611C87.9191 85.1307 87.9648 85.1078 88.0182 85.0773C88.0258 85.0697 88.041 85.0697 88.0486 85.0621C88.0867 85.0393 88.1248 85.024 88.1705 85.0012L88.2162 84.9783C88.2695 84.9555 88.3152 84.9326 88.3686 84.9174C88.4219 84.8945 88.4752 84.8793 88.5285 84.8641C88.5437 84.8564 88.559 84.8564 88.5742 84.8488C88.6199 84.8336 88.658 84.826 88.7037 84.8184C88.7189 84.8184 88.7266 84.8107 88.7418 84.8107C88.7951 84.7955 88.8561 84.7879 88.9094 84.7803C88.9246 84.7803 88.9322 84.7803 88.9475 84.7727C88.9932 84.765 89.0389 84.765 89.0846 84.7574H89.1303C89.1912 84.7574 89.2445 84.7498 89.3055 84.7498C89.3664 84.7498 89.4197 84.7498 89.4807 84.7574H89.5264C89.5721 84.7574 89.6178 84.765 89.6635 84.7727C89.6787 84.7727 89.6863 84.7727 89.7016 84.7803C89.7549 84.7879 89.8158 84.7955 89.8691 84.8107C89.8844 84.8107 89.892 84.8184 89.9072 84.8184C89.9529 84.826 89.9986 84.8412 90.0367 84.8488C90.052 84.8564 90.0672 84.8564 90.0824 84.8641C90.1357 84.8793 90.1891 84.8945 90.2424 84.9174C90.2957 84.9326 90.3414 84.9555 90.3947 84.9783L90.4404 85.0012C90.4785 85.0164 90.5242 85.0393 90.5623 85.0621C90.5699 85.0697 90.5852 85.0697 90.5928 85.0773C90.6385 85.1002 90.6918 85.1307 90.7375 85.1611C90.7451 85.1688 90.7604 85.1764 90.768 85.184C90.8061 85.2068 90.8441 85.2297 90.8746 85.2602C90.8898 85.2678 90.8975 85.2754 90.9127 85.283C90.9584 85.3135 91.0041 85.3516 91.0422 85.382C91.0803 85.4125 91.126 85.4506 91.1641 85.4887L91.1945 85.5191L91.2859 85.6105L91.3088 85.6334C91.3469 85.6715 91.385 85.7172 91.4154 85.7553C91.423 85.7629 91.4307 85.7781 91.4383 85.7857C91.4688 85.8162 91.4916 85.8543 91.5145 85.8924C91.5221 85.9076 91.5297 85.9152 91.5373 85.9305L91.6287 86.0676C91.6287 86.0676 91.6287 86.0752 91.6363 86.0752C91.8903 86.5014 92.0245 86.9882 92.0248 87.4844C92.0248 87.9414 91.9105 88.3756 91.7125 88.7564C91.6896 88.8022 91.6592 88.8479 91.6363 88.8936C91.6363 88.8936 91.6363 88.9012 91.6287 88.9012L91.5373 89.0383C91.5297 89.0535 91.5221 89.0611 91.5145 89.0764C91.4916 89.1145 91.4611 89.1449 91.4383 89.183C91.4307 89.1906 91.423 89.2059 91.4154 89.2135C91.3773 89.2592 91.3469 89.2973 91.3088 89.3354L91.2859 89.3582L91.1945 89.4496L91.1641 89.4801C91.126 89.5182 91.0879 89.5486 91.0422 89.5867C90.9965 89.6248 90.9584 89.6553 90.9127 89.6857C90.8975 89.6934 90.8898 89.701 90.8746 89.7086C90.8365 89.7314 90.8061 89.7619 90.768 89.7848C90.7604 89.7924 90.7451 89.8 90.7375 89.8076C90.6918 89.8381 90.6461 89.8609 90.5928 89.8914C90.5852 89.899 90.5699 89.899 90.5623 89.9066C90.5242 89.9295 90.4861 89.9447 90.4404 89.9676L90.3947 89.9904C90.3414 90.0133 90.2957 90.0361 90.2424 90.0514C90.1891 90.0742 90.1357 90.0895 90.0824 90.1047C90.0672 90.1123 90.052 90.1123 90.0367 90.1199C89.991 90.1352 89.9529 90.1428 89.9072 90.1504C89.892 90.1504 89.8844 90.158 89.8691 90.158C89.8158 90.1732 89.7549 90.1809 89.7016 90.1885C89.6863 90.1885 89.6787 90.1885 89.6635 90.1961C89.6178 90.2037 89.5721 90.2037 89.5264 90.2113H89.4807C89.4197 90.2113 89.3664 90.2189 89.3055 90.2189C89.2445 90.2189 89.1912 90.2189 89.1303 90.2113H89.0846C89.0389 90.2113 88.9932 90.2037 88.9475 90.1961C88.9322 90.1961 88.9246 90.1961 88.9094 90.1885C88.8561 90.1809 88.7951 90.1732 88.7418 90.158C88.7266 90.158 88.7189 90.1504 88.7037 90.1504C88.658 90.1428 88.6123 90.1275 88.5742 90.1199C88.559 90.1123 88.5437 90.1123 88.5285 90.1047C88.4752 90.0895 88.4219 90.0742 88.3686 90.0514C88.3152 90.0361 88.2695 90.0133 88.2162 89.9904L88.1705 89.9676C88.1324 89.9523 88.0867 89.9295 88.0486 89.9066C88.041 89.899 88.0258 89.899 88.0182 89.8914C87.9725 89.8686 87.9191 89.8381 87.8734 89.8076C87.8658 89.8 87.8506 89.7924 87.843 89.7848C87.8049 89.7619 87.7668 89.7391 87.7363 89.7086C87.7211 89.701 87.7135 89.6934 87.6982 89.6857C87.6525 89.6553 87.6068 89.6172 87.5687 89.5867C87.5307 89.5562 87.485 89.5182 87.4469 89.4801L87.4164 89.4496L87.325 89.3582L87.3021 89.3354C87.2641 89.2973 87.226 89.2516 87.1955 89.2135C87.1879 89.2059 87.1803 89.1906 87.1727 89.183C87.1422 89.1525 87.1193 89.1145 87.0965 89.0764C87.0889 89.0611 87.0812 89.0535 87.0736 89.0383L86.9822 88.9012V88.8936C86.9518 88.8479 86.9289 88.8022 86.9061 88.7564C86.708 88.3756 86.5938 87.9414 86.5938 87.4844C86.5938 87.0273 86.708 86.5932 86.9061 86.2123ZM108.227 84.0566V100.891C108.227 101.226 108.501 101.5 108.836 101.5H112.492C112.827 101.5 113.102 101.226 113.102 100.891V84.0566C112.332 84.308 111.517 84.4375 110.664 84.4375C109.811 84.4375 108.996 84.3004 108.227 84.0566ZM113.102 68.9746V63.1094C113.102 62.7742 112.827 62.5 112.492 62.5H108.836C108.501 62.5 108.227 62.7742 108.227 63.1094V68.9746C108.996 68.7232 109.811 68.5938 110.664 68.5938C111.517 68.5938 112.332 68.7309 113.102 68.9746ZM108.227 84.0566C108.996 84.308 109.811 84.4375 110.664 84.4375C111.517 84.4375 112.332 84.3004 113.102 84.0566C116.286 83.0283 118.586 80.0424 118.586 76.5156C118.586 72.9889 116.286 70.0029 113.102 68.9746C112.332 68.7232 111.517 68.5938 110.664 68.5938C109.811 68.5938 108.996 68.7309 108.227 68.9746C105.043 70.0029 102.742 72.9889 102.742 76.5156C102.742 80.0424 105.043 83.0283 108.227 84.0566ZM108.234 75.2436C108.257 75.1979 108.287 75.1521 108.31 75.1064V75.0988L108.402 74.9617C108.409 74.9465 108.417 74.9389 108.425 74.9236C108.447 74.8855 108.478 74.8551 108.501 74.817C108.508 74.8094 108.516 74.7941 108.524 74.7865C108.562 74.7408 108.592 74.7027 108.63 74.6646L108.653 74.6418L108.745 74.5504L108.775 74.5199C108.813 74.4818 108.851 74.4514 108.897 74.4133C108.943 74.3752 108.981 74.3447 109.026 74.3143C109.042 74.3066 109.049 74.299 109.064 74.2914C109.103 74.2686 109.133 74.2381 109.171 74.2152C109.179 74.2076 109.194 74.2 109.202 74.1924C109.247 74.1619 109.293 74.1391 109.346 74.1086C109.354 74.101 109.369 74.101 109.377 74.0934C109.415 74.0705 109.453 74.0553 109.499 74.0324L109.544 74.0096C109.598 73.9867 109.643 73.9639 109.697 73.9486C109.75 73.9258 109.803 73.9105 109.857 73.8953C109.872 73.8877 109.887 73.8877 109.902 73.8801C109.948 73.8648 109.986 73.8572 110.032 73.8496C110.047 73.8496 110.055 73.842 110.07 73.842C110.123 73.8268 110.184 73.8191 110.238 73.8115C110.253 73.8115 110.26 73.8115 110.276 73.8039C110.321 73.7963 110.367 73.7963 110.413 73.7887H110.458C110.519 73.7887 110.573 73.7811 110.634 73.7811C110.695 73.7811 110.748 73.7811 110.809 73.7887H110.854C110.9 73.7887 110.946 73.7963 110.992 73.8039C111.007 73.8039 111.014 73.8039 111.03 73.8115C111.083 73.8191 111.144 73.8268 111.197 73.842C111.213 73.842 111.22 73.8496 111.235 73.8496C111.281 73.8572 111.327 73.8725 111.365 73.8801C111.38 73.8877 111.395 73.8877 111.411 73.8953C111.464 73.9105 111.517 73.9258 111.571 73.9486C111.624 73.9639 111.67 73.9867 111.723 74.0096L111.769 74.0324C111.807 74.0477 111.852 74.0705 111.89 74.0934C111.898 74.101 111.913 74.101 111.921 74.1086C111.967 74.1314 112.02 74.1619 112.066 74.1924C112.073 74.2 112.088 74.2076 112.096 74.2152C112.134 74.2381 112.172 74.2609 112.203 74.2914C112.218 74.299 112.226 74.3066 112.241 74.3143C112.287 74.3447 112.332 74.3828 112.37 74.4133C112.408 74.4438 112.454 74.4818 112.492 74.5199L112.523 74.5504L112.614 74.6418L112.637 74.6646C112.675 74.7027 112.713 74.7484 112.744 74.7865C112.751 74.7941 112.759 74.8094 112.766 74.817C112.797 74.8475 112.82 74.8855 112.843 74.9236C112.85 74.9389 112.858 74.9465 112.865 74.9617L112.957 75.0988V75.1064C113.211 75.5326 113.345 76.0195 113.345 76.5156C113.345 76.9727 113.231 77.4068 113.033 77.7877C113.01 77.8334 112.98 77.8791 112.957 77.9248V77.9324L112.865 78.0695C112.858 78.0848 112.85 78.0924 112.843 78.1076C112.82 78.1457 112.789 78.1762 112.766 78.2143C112.759 78.2219 112.751 78.2371 112.744 78.2447C112.705 78.2904 112.675 78.3285 112.637 78.3666L112.614 78.3895L112.523 78.4809L112.492 78.5113C112.454 78.5494 112.416 78.5799 112.37 78.618C112.325 78.6561 112.287 78.6865 112.241 78.717C112.226 78.7246 112.218 78.7322 112.203 78.7398C112.165 78.7627 112.134 78.7932 112.096 78.816C112.088 78.8236 112.073 78.8312 112.066 78.8389C112.02 78.8693 111.974 78.8922 111.921 78.9227C111.913 78.9303 111.898 78.9303 111.89 78.9379C111.852 78.9607 111.814 78.976 111.769 78.9988L111.723 79.0217C111.67 79.0445 111.624 79.0674 111.571 79.0826C111.517 79.1055 111.464 79.1207 111.411 79.1359C111.395 79.1436 111.38 79.1436 111.365 79.1512C111.319 79.1664 111.281 79.174 111.235 79.1816C111.22 79.1816 111.213 79.1893 111.197 79.1893C111.144 79.2045 111.083 79.2121 111.03 79.2197C111.014 79.2197 111.007 79.2197 110.992 79.2273C110.946 79.235 110.9 79.235 110.854 79.2426H110.809C110.748 79.2426 110.695 79.2502 110.634 79.2502C110.573 79.2502 110.519 79.2502 110.458 79.2426H110.413C110.367 79.2426 110.321 79.235 110.276 79.2273C110.26 79.2273 110.253 79.2273 110.238 79.2197C110.184 79.2121 110.123 79.2045 110.07 79.1893C110.055 79.1893 110.047 79.1816 110.032 79.1816C109.986 79.174 109.94 79.1588 109.902 79.1512C109.887 79.1436 109.872 79.1436 109.857 79.1359C109.803 79.1207 109.75 79.1055 109.697 79.0826C109.643 79.0674 109.598 79.0445 109.544 79.0217L109.499 78.9988C109.461 78.9836 109.415 78.9607 109.377 78.9379C109.369 78.9303 109.354 78.9303 109.346 78.9227C109.301 78.8998 109.247 78.8693 109.202 78.8389C109.194 78.8312 109.179 78.8236 109.171 78.816C109.133 78.7932 109.095 78.7703 109.064 78.7398C109.049 78.7322 109.042 78.7246 109.026 78.717C108.981 78.6865 108.935 78.6484 108.897 78.618C108.859 78.5875 108.813 78.5494 108.775 78.5113L108.745 78.4809L108.653 78.3895L108.63 78.3666C108.592 78.3285 108.554 78.2828 108.524 78.2447C108.516 78.2371 108.508 78.2219 108.501 78.2143C108.47 78.1838 108.447 78.1457 108.425 78.1076C108.417 78.0924 108.409 78.0848 108.402 78.0695L108.31 77.9324V77.9248C108.28 77.8791 108.257 77.8334 108.234 77.7877C108.036 77.4068 107.922 76.9727 107.922 76.5156C107.922 76.0586 108.036 75.6244 108.234 75.2436Z" fill="white"/>
<defs>
<linearGradient id="paint0_linear_105_999" x1="267.5" y1="3.06014e-06" x2="19" y2="105" gradientUnits="userSpaceOnUse">
<stop stop-color="#FCDE90"/>
<stop offset="1" stop-color="#F39700"/>
</linearGradient>
</defs>
</svg>
