<svg width="32" height="32" viewBox="0 0 32 32" fill="none" xmlns="http://www.w3.org/2000/svg">
<path d="M25.3334 26.6666H6.6667C6.31307 26.6666 5.97394 26.8071 5.72389 27.0572C5.47384 27.3072 5.33336 27.6464 5.33336 28C5.33336 28.3536 5.47384 28.6927 5.72389 28.9428C5.97394 29.1928 6.31307 29.3333 6.6667 29.3333H25.3334C25.687 29.3333 26.0261 29.1928 26.2762 28.9428C26.5262 28.6927 26.6667 28.3536 26.6667 28C26.6667 27.6464 26.5262 27.3072 26.2762 27.0572C26.0261 26.8071 25.687 26.6666 25.3334 26.6666ZM6.6667 24H6.7867L12.3467 23.4933C12.9558 23.4326 13.5254 23.1643 13.96 22.7333L25.96 10.7333C26.4258 10.2413 26.6775 9.58465 26.66 8.90735C26.6425 8.23006 26.3572 7.58732 25.8667 7.11997L22.2134 3.46664C21.7365 3.01877 21.1117 2.76179 20.4578 2.74458C19.8039 2.72737 19.1664 2.95113 18.6667 3.37331L6.6667 15.3733C6.23572 15.8079 5.96737 16.3776 5.9067 16.9866L5.33336 22.5466C5.3154 22.7419 5.34074 22.9388 5.40758 23.1232C5.47441 23.3075 5.5811 23.4749 5.72003 23.6133C5.84462 23.7369 5.99237 23.8346 6.15482 23.901C6.31727 23.9674 6.49122 24.001 6.6667 24ZM20.36 5.33331L24 8.97331L21.3334 11.5733L17.76 7.99997L20.36 5.33331Z" fill="black"/>
</svg>
